<?xml version="1.0" standalone="no"?>
<!DOCTYPE svg PUBLIC "-//W3C//DTD SVG 20010904//EN"
 "http://www.w3.org/TR/2001/REC-SVG-20010904/DTD/svg10.dtd">
<svg version="1.0" xmlns="http://www.w3.org/2000/svg"
 width="512.000000pt" height="512.000000pt" viewBox="0 0 512.000000 512.000000"
 preserveAspectRatio="xMidYMid meet">
<metadata>
Created by potrace 1.14, written by Peter Selinger 2001-2017
</metadata>
<g transform="translate(0.000000,512.000000) scale(0.100000,-0.100000)"
fill="#000000" stroke="none">
<path d="M670 4863 c-119 -42 -228 -154 -263 -274 -11 -36 -13 -413 -12 -2009
1 -1081 5 -1978 10 -1995 12 -44 50 -100 84 -124 74 -53 25 -51 1246 -48
l1133 2 26 24 c35 33 42 79 22 138 -18 53 -41 84 -73 102 -16 8 -301 11 -1072
11 l-1050 0 -21 22 c-11 12 -21 24 -21 27 -8 28 -4 3801 4 3817 5 12 20 27 34
33 17 8 550 11 1914 11 1769 0 1893 -1 1920 -17 16 -10 30 -26 30 -38 1 -11 3
-574 4 -1251 l1 -1230 22 -36 c31 -49 84 -95 121 -103 40 -8 74 15 109 74 l27
46 0 1320 0 1320 -29 58 c-34 70 -85 111 -157 126 -35 8 -644 11 -2007 10
-1748 -1 -1962 -2 -2002 -16z"/>
<path d="M1679 4030 c-62 -16 -140 -50 -183 -79 -319 -221 -317 -678 5 -895
l50 -33 -53 -18 c-275 -88 -508 -331 -588 -611 -24 -83 -25 -127 -4 -159 22
-34 77 -50 115 -35 35 15 50 42 74 130 20 74 82 200 120 245 128 151 267 240
420 269 74 14 94 16 155 17 323 4 614 -219 701 -537 12 -43 26 -86 32 -96 34
-54 132 -44 161 17 19 40 16 75 -16 170 -82 247 -250 439 -484 551 -51 24 -98
44 -106 44 -7 0 -19 4 -26 9 -10 6 1 17 37 40 243 156 311 497 148 743 -65 97
-154 166 -269 209 -61 23 -231 34 -289 19z m191 -195 c62 -13 126 -52 173
-105 139 -154 112 -389 -57 -505 -175 -120 -404 -59 -498 133 -29 59 -33 76
-33 147 1 65 6 90 27 135 72 153 227 231 388 195z"/>
<path d="M3046 3835 c-35 -24 -49 -65 -34 -106 20 -58 28 -59 462 -59 l394 0
31 26 c48 40 41 116 -12 146 -16 9 -122 12 -416 13 -381 1 -396 0 -425 -20z"/>
<path d="M3075 3292 c-79 -16 -94 -128 -22 -166 29 -15 72 -17 429 -14 l396 3
26 24 c30 28 37 66 19 103 -25 52 -29 53 -443 53 -212 1 -394 -1 -405 -3z"/>
<path d="M3065 2730 c-29 -11 -52 -40 -60 -78 -6 -28 -2 -37 28 -67 l35 -35
591 2 591 3 24 25 c40 40 42 83 7 122 l-29 33 -584 1 c-321 1 -592 -2 -603 -6z"/>
<path d="M3933 2072 c-29 -4 -75 -54 -80 -84 -2 -12 1 -34 7 -49 6 -15 95
-107 197 -205 102 -99 236 -227 297 -286 l111 -108 -742 0 c-522 0 -749 -3
-766 -11 -41 -19 -60 -86 -37 -130 26 -47 16 -46 828 -45 419 0 762 -2 762 -6
0 -4 -12 -16 -27 -28 -16 -12 -46 -38 -68 -59 -22 -20 -87 -79 -145 -131 -58
-51 -145 -130 -195 -175 -49 -45 -111 -100 -136 -121 -69 -59 -93 -96 -85
-138 13 -69 101 -108 162 -73 12 7 81 68 154 136 72 69 140 132 150 141 10 9
76 70 147 137 70 66 142 132 158 148 226 207 238 222 228 278 -4 18 -50 69
-142 155 -74 70 -148 138 -162 152 -15 14 -80 75 -144 135 -65 61 -139 130
-164 154 -80 76 -213 196 -225 203 -17 10 -57 15 -83 10z"/>
</g>
</svg>
